:SAMPLES-PER-SECOND 30
:FULLY-SPECIFIED
:DEGREES
612
root  33.2706 35.3767 2.70589 -16.2133 79.5058 -10.0592
RightUpLeg  -29.7487 0.20306 -1.67719
RightLeg  38.3518 8.54312 6.91657
RightFoot  -1.3226 -0.0836453 0.889802
RightToes  -2.32831e-009 0 -3.6325e-017
Spine  21.8652 -3.5782 9.85937
Spine1  3.13708 -4.26378 11.7839
HEad  -37.7014 43.7698 -26.7852
LeftShoulder1  0.311981 2.49726 -24.7252
LeftArm  2.37006 -7.67557 -39.9431
LeftForeArm  44.0718 -72.2831 -31.7151
LeftHand  -0.0174897 6.98172 1.35991
RightShoulder  -0.754549 -6.03132 23.1694
RightArm  -43.7135 -12.817 17.4489
RightForeArm  140.56 57.0863 162.161
RightHand  -0.454471 9.60542 -3.90686
LeftUpLeg  -14.272 19.5734 -0.121289
LeftLeg  74.5096 -0.106393 0.408851
LeftFoot  13.6271 0.887535 -4.30538
LeftToes  8.91272e-011 -1.70619e-011 7.36378e-012
613
root  34.2589 35.4034 2.4959 -12.7414 78.9367 -6.78284
RightUpLeg  -29.3697 0.463724 -2.78049
RightLeg  40.2966 8.702 7.55229
RightFoot  -3.99818 -0.0898893 0.984665
RightToes  -2.32831e-009 0 -3.6325e-017
Spine  23.6541 -3.61501 9.52401
Spine1  3.06305 -4.59975 12.9753
HEad  -39.7207 44.7939 -28.7416
LeftShoulder1  0.372951 2.31473 -25.125
LeftArm  6.86441 -7.7243 -40.1395
LeftForeArm  44.3666 -71.7972 -30.4817
LeftHand  -0.0154003 7.20673 1.34718
RightShoulder  -0.77229 -6.06874 23.4249
RightArm  -44.8113 -13.5126 21.3528
RightForeArm  141.491 56.4158 162.649
RightHand  -0.453132 9.4665 -3.94462
LeftUpLeg  -21.1174 22.8638 -0.848466
LeftLeg  79.5952 -0.370132 -0.758396
LeftFoot  8.72284 0.372839 -2.44232
LeftToes  8.91272e-011 -1.70619e-011 7.36378e-012
614
root  35.2202 35.5121 2.22734 -6.50867 78.2831 -1.1369
RightUpLeg  -29.1342 0.426058 -4.56313
RightLeg  41.4321 9.30474 8.40854
RightFoot  -6.24205 -0.0982336 1.24823
RightToes  -2.32831e-009 0 -3.6325e-017
Spine  24.9204 -3.46926 9.16226
Spine1  3.25633 -4.71038 13.4681
HEad  -41.6387 45.2632 -30.4758
LeftShoulder1  0.43171 2.10804 -24.736
LeftArm  13.2774 -8.84937 -40.5267
LeftForeArm  42.8992 -69.5827 -26.26
LeftHand  -0.0372008 6.31322 -0.258623
RightShoulder  -0.818949 -6.18936 23.8476
RightArm  -45.1252 -14.4505 24.6325
RightForeArm  141.506 55.3414 163.275
RightHand  -0.463602 10.9966 -3.69209
LeftUpLeg  -27.8174 25.2726 -2.86252
LeftLeg  80.2174 -0.805017 -3.7919
LeftFoot  6.22368 0.401719 -2.85691
LeftToes  8.91272e-011 -1.70619e-011 7.36378e-012
615
root  36.1633 35.7501 1.90907 -1.34821 77.1873 3.04901
RightUpLeg  -28.7921 0.725684 -6.27234
RightLeg  41.2599 10.01 8.99741
RightFoot  -7.63928 -0.108995 1.7902
RightToes  -2.32831e-009 0 -3.6325e-017
Spine  26.3861 -3.09029 9.25643
Spine1  1.9665 -4.19581 13.4615
HEad  -41.4486 45.536 -30.9454
LeftShoulder1  0.626636 1.46477 -24.4493
LeftArm  20.9696 -9.93162 -39.9826
LeftForeArm  42.6797 -66.3798 -21.4971
LeftHand  -0.0494025 6.06543 -2.4242
RightShoulder  -0.766707 -5.99612 24.0818
RightArm  -45.1567 -17.405 25.0371
RightForeArm  142.609 53.2746 164.486
RightHand  -0.42333 9.69946 -3.65283
LeftUpLeg  -33.5903 27.3762 -4.6836
LeftLeg  77.0252 -1.64217 -6.99699
LeftFoot  4.2821 0.460714 -3.53851
LeftToes  8.91272e-011 -1.70619e-011 7.36378e-012
616
root  37.0976 36.0777 1.5469 5.10004 75.7493 8.35443
RightUpLeg  -28.3542 0.895585 -8.52413
RightLeg  40.1945 11.0388 9.56979
RightFoot  -8.70426 -0.123622 2.77363
RightToes  -2.32831e-009 0 -3.6325e-017
Spine  27.1632 -2.52506 8.09031
Spine1  1.91129 -3.97369 13.8134
HEad  -42.8429 45.9714 -32.6896
LeftShoulder1  0.689597 1.28454 -24.887
LeftArm  27.1848 -10.9614 -38.3221
LeftForeArm  43.3026 -63.599 -18.4214
LeftHand  -0.0839711 6.44783 -4.23482
RightShoulder  -0.715966 -5.89028 23.3007
RightArm  -46.0143 -18.7843 23.7802
RightForeArm  143.253 51.4979 165.415
RightHand  -0.43875 10.7605 -3.55951
LeftUpLeg  -38.0502 29.4224 -6.83636
LeftLeg  70.4207 -2.4975 -7.06532
LeftFoot  2.19336 0.354147 -3.08578
LeftToes  8.91272e-011 -1.70619e-011 7.36378e-012
